<svg xmlns="http://www.w3.org/2000/svg" width="732.327" height="106.535" viewBox="0 0 732.327 106.535">
  <g id="Groupe_264" data-name="Groupe 264" transform="translate(-86.033 -88.993)">
    <g id="Groupe_60" data-name="Groupe 60" transform="translate(715.193 92.357)">
      <path id="Tracé_72" data-name="Tracé 72" d="M499.843,142.24h0a51.582,51.582,0,1,0-51.578,51.586h51.582Z" transform="translate(-396.676 -90.654)" fill="#335269" fill-rule="evenodd"/>
      <path id="Tracé_73" data-name="Tracé 73" d="M482.728,122.5a6.342,6.342,0,0,0-1.4-1.019l.012-.071L443.645,96.941l-.012-.012v.012l-.014-.012-.008.012-37.682,24.468.024.071a6.446,6.446,0,0,0-1.448,1.037,5.853,5.853,0,0,0-1.821,4.326,5.775,5.775,0,0,0,1.821,4.3,5.989,5.989,0,0,0,4.342,1.764h2.979l.008-.012.02,0-.075.028-.012,13.687c.02.419.055.855.055,1.29v1.306a20.286,20.286,0,0,0,5.987,14.7,19.6,19.6,0,0,0,14.58,6.125h6.676c.419,0,.824.016,1.219.043h35.138v-.067l.043.024-.028-37.147h2.951a5.924,5.924,0,0,0,4.34-1.778,5.706,5.706,0,0,0,1.815-4.3A5.793,5.793,0,0,0,482.728,122.5Z" transform="translate(-390.516 -84.22)" fill="#a2cfe5"/>
      <path id="Tracé_74" data-name="Tracé 74" d="M444.408,107.435a10.442,10.442,0,0,0-10.443,10.443v10.445H423.519a10.438,10.438,0,0,0,0,20.875h31.326v-31.32A10.442,10.442,0,0,0,444.408,107.435Z" transform="translate(-379.846 -73.448)" fill="#d57a24"/>
    </g>
    <g id="Groupe_65" data-name="Groupe 65" transform="translate(86.033 88.993)">
      <path id="Tracé_75" data-name="Tracé 75" d="M216.215,142.183v39.2a16.622,16.622,0,0,1-16.5-16.5v-22.7a23.351,23.351,0,0,0-6.726-16.744,22.8,22.8,0,0,0-32.963,0,23.221,23.221,0,0,0-6.783,16.744v22.7a16.424,16.424,0,0,1-16.507,16.5v-39.2a37.588,37.588,0,0,1,11.749-27.851,39.739,39.739,0,0,1,45.53-7.472,40.914,40.914,0,0,1,14.046,11.348A40.088,40.088,0,0,1,222.009,106.9a39.113,39.113,0,0,1,17.493-4.113,38.437,38.437,0,0,1,28,11.544,37.723,37.723,0,0,1,11.69,27.851v39.2a16.607,16.607,0,0,1-16.5-16.5v-22.7a23.346,23.346,0,0,0-6.73-16.744,22.807,22.807,0,0,0-32.971,0A23.283,23.283,0,0,0,216.215,142.183Z" transform="translate(-34.049 -74.848)" fill="#335269"/>
      <path id="Tracé_76" data-name="Tracé 76" d="M276.8,181.384a38.621,38.621,0,0,1-28-11.445,38.893,38.893,0,0,1,0-55.606,38.409,38.409,0,0,1,28-11.544H300a15.59,15.59,0,0,1-15.636,15.605H276.8a22.231,22.231,0,0,0-16.555,7.046,23.159,23.159,0,0,0-6.831,16.744,22.871,22.871,0,0,0,6.831,16.648A22.371,22.371,0,0,0,276.8,165.76h7.563A15.624,15.624,0,0,1,300,181.384Z" transform="translate(68.87 -74.848)" fill="#335269"/>
      <g id="Groupe_62" data-name="Groupe 62" transform="translate(265.894)">
        <g id="Groupe_61" data-name="Groupe 61" transform="translate(2.509 27.338)">
          <path id="Tracé_77" data-name="Tracé 77" d="M235.169,181.688a16.725,16.725,0,0,1-16.614-16.636V102.491a16.718,16.718,0,0,1,16.614,16.624Z" transform="translate(-218.555 -102.491)" fill="#335269"/>
        </g>
        <path id="Tracé_78" data-name="Tracé 78" d="M217.316,98.391a9.532,9.532,0,1,0,9.535-9.4A9.463,9.463,0,0,0,217.316,98.391Z" transform="translate(-217.316 -88.993)" fill="#335269"/>
      </g>
      <path id="Tracé_79" data-name="Tracé 79" d="M365.015,156.287a22.978,22.978,0,0,0,6.773,16.648,22.213,22.213,0,0,0,16.513,6.929h7.567a15.618,15.618,0,0,1,15.617,15.623H388.3a38.827,38.827,0,0,1-28.059-11.445,37.312,37.312,0,0,1-11.733-27.755V89.033a16.607,16.607,0,0,1,16.507,16.507Z" transform="translate(183.095 -88.952)" fill="#335269"/>
      <g id="Groupe_64" data-name="Groupe 64" transform="translate(389.539 0.004)">
        <g id="Groupe_63" data-name="Groupe 63" transform="translate(2.511 27.334)">
          <path id="Tracé_80" data-name="Tracé 80" d="M296.223,181.688A16.718,16.718,0,0,1,279.6,165.052V102.491a16.725,16.725,0,0,1,16.618,16.624Z" transform="translate(-279.605 -102.491)" fill="#335269"/>
        </g>
        <path id="Tracé_81" data-name="Tracé 81" d="M278.365,98.389a9.54,9.54,0,1,0,9.541-9.394A9.467,9.467,0,0,0,278.365,98.389Z" transform="translate(-278.365 -88.995)" fill="#335269"/>
      </g>
      <path id="Tracé_82" data-name="Tracé 82" d="M165.51,142.187v39.1H125.72a38.672,38.672,0,0,1-27.974-11.413,38.694,38.694,0,0,1,0-55.47,39.788,39.788,0,0,1,56,0A37.453,37.453,0,0,1,165.51,142.187Zm-16.66,23.52v-23.52a23.3,23.3,0,0,0-6.722-16.707,22.793,22.793,0,0,0-32.9,0,23.276,23.276,0,0,0-6.736,16.707,22.953,22.953,0,0,0,6.736,16.61,22.063,22.063,0,0,0,16.446,6.91Z" transform="translate(-86.033 -74.751)" fill="#335269"/>
      <path id="Tracé_83" data-name="Tracé 83" d="M377.31,142.187v39.1H337.528a38.691,38.691,0,0,1-27.988-11.413,38.7,38.7,0,0,1,0-55.47,39.8,39.8,0,0,1,56.011,0A37.456,37.456,0,0,1,377.31,142.187Zm-16.662,23.52v-23.52a23.3,23.3,0,0,0-6.722-16.707,22.79,22.79,0,0,0-32.894,0,23.263,23.263,0,0,0-6.74,16.707,22.941,22.941,0,0,0,6.74,16.61,22.055,22.055,0,0,0,16.448,6.91Z" transform="translate(131.131 -74.751)" fill="#335269"/>
    </g>
  </g>
</svg>
